<svg height="512pt" viewBox="0 0 512 512" width="512pt" xmlns="http://www.w3.org/2000/svg"><path d="m201.761719 281.695312c-7.105469 7.105469-17.6875 8.738282-26.394531 4.90625l-152.308594 140.277344c-17.753906 16.351563-17.066406 44.996094 0 62.0625s45.710937 17.753906 62.0625 0l140.277344-152.308594c-3.832032-8.707031-2.199219-19.289062 4.90625-26.394531l18.5-18.5-28.542969-28.542969zm0 0" fill="#5fa4ff" fill-rule="evenodd"/><path d="m397.164062 15.84375 98.992188 98.992188c7.777344 7.777343 7.777344 20.507812 0 28.285156l-183.84375 183.84375c-7.777344 7.777344-20.503906 7.777344-28.28125 0l-98.996094-98.992188c-7.777344-7.78125-7.777344-20.507812 0-28.285156l183.84375-183.84375c7.78125-7.777344 20.507813-7.777344 28.285156 0zm0 0" fill="#eef2f2" fill-rule="evenodd"/><path d="m503.230469 107.765625-98.996094-98.992187c-11.695313-11.699219-30.726563-11.699219-42.425781 0l-10 10c-3.902344 3.902343-3.902344 10.234374 0 14.140624 3.90625 3.902344 10.238281 3.902344 14.144531 0l10-10c3.898437-3.898437 10.242187-3.898437 14.140625 0l98.992188 98.992188c1.875 1.875 2.90625 4.386719 2.90625 7.070312 0 2.6875-1.03125 5.199219-2.90625 7.070313l-183.84375 183.84375c-1.875 1.875-4.382813 2.90625-7.070313 2.90625s-5.199219-1.03125-7.070313-2.90625l-98.996093-98.992187c-1.871094-1.875-2.902344-4.382813-2.902344-7.070313s1.03125-5.199219 2.902344-7.070313l117.277343-117.277343c3.90625-3.902344 3.90625-10.234375 0-14.140625-3.902343-3.90625-10.234374-3.90625-14.140624 0l-117.277344 117.277344c-5.648438 5.648437-8.761719 13.183593-8.761719 21.210937s3.113281 15.5625 8.761719 21.210937l28.15625 28.15625-11.429688 11.429688c-3.96875 3.96875-10.113281 5.105469-15.292968 2.824219-3.640626-1.601563-7.878907-.898438-10.804688 1.796875l-152.308594 140.277344c-10.203125 9.398437-15.980468 22.421874-16.2734372 36.671874-.3046878 14.84375 5.5156252 29.359376 15.9765622 39.816407 10.195313 10.199219 24.25 15.988281 38.707031 15.988281.371094 0 .742188-.003906 1.109376-.011719 14.253906-.292969 27.277343-6.070312 36.671874-16.273437 3.742188-4.058594 3.480469-10.386719-.582031-14.128906-4.0625-3.742188-10.390625-3.480469-14.128906.582031-5.671875 6.15625-13.617187 9.644531-22.371094 9.824219-9.417969.207031-18.636719-3.496094-25.265625-10.121094-6.625-6.628906-10.316406-15.835938-10.121094-25.265625.179688-8.753907 3.667969-16.699219 9.824219-22.371094l148.070313-136.371094c11.027344 2.324219 22.816406-.980469 30.929687-9.09375l11.429688-11.429687 14.402343 14.398437-11.429687 11.429688c-8.113281 8.117187-11.421875 19.90625-9.09375 30.933593l-82.179687 89.222657c-3.742188 4.0625-3.480469 10.390625.582031 14.132812 1.921875 1.769531 4.351562 2.644531 6.773437 2.644531 2.695313 0 5.386719-1.085937 7.355469-3.226562l86.085937-93.464844c2.691407-2.925781 3.398438-7.167968 1.796876-10.804687-2.28125-5.179688-1.144532-11.324219 2.824218-15.292969l11.425782-11.429688 28.15625 28.15625c5.648437 5.648438 13.183593 8.761719 21.210937 8.761719s15.5625-3.113281 21.214844-8.765625l183.84375-183.84375c5.648437-5.648437 8.761719-13.183594 8.761719-21.210937 0-8.027344-3.113282-15.566407-8.761719-21.214844zm0 0"/><path d="m274.804688 239.738281v.007813c0 5.523437 4.476562 9.996094 10 9.996094 5.523437 0 10-4.480469 10-10.003907 0-5.519531-4.476563-10-10-10-5.523438 0-10 4.480469-10 10zm0 0"/><path d="m393.804688 195.742188c0-5.523438-4.480469-10-10-10-5.523438 0-10 4.476562-10 10v.007812c0 5.523438 4.476562 9.996094 10 9.996094 5.519531 0 10-4.480469 10-10.003906zm0 0"/><path d="m418.800781 112.742188c0-5.523438-4.476562-10-10-10-5.519531 0-9.996093 4.476562-9.996093 10v.007812c0 5.523438 4.476562 9.996094 9.996093 9.996094 5.523438 0 10-4.480469 10-10.003906zm0 0"/><path d="m300.804688 160.742188v.007812c0 5.523438 4.476562 9.996094 10 9.996094 5.523437 0 10-4.480469 10-10.003906 0-5.523438-4.476563-10-10-10-5.523438 0-10 4.476562-10 10zm0 0"/><path d="m330.597656 64.128906c2.398438 0 4.808594-.859375 6.722656-2.601562l.003907-.003906c4.085937-3.714844 4.386719-10.035157.671875-14.125-3.714844-4.085938-10.042969-4.382813-14.128906-.667969-4.085938 3.714843-4.386719 10.039062-.671876 14.125 1.972657 2.171875 4.683594 3.273437 7.402344 3.273437zm0 0"/><path d="m105.144531 452.453125c-3.90625 3.902344-3.90625 10.234375 0 14.140625 1.953125 1.953125 4.511719 2.929688 7.070313 2.929688s5.117187-.976563 7.070312-2.929688l.007813-.003906c3.902343-3.90625 3.902343-10.234375-.003907-14.140625s-10.238281-3.902344-14.144531.003906zm0 0"/></svg>